<svg width="129" height="47" viewBox="0 0 129 47" fill="none" xmlns="http://www.w3.org/2000/svg">
<path d="M15.7347 0H23.328H32.5319C40.9458 0 47.7666 6.8208 47.7666 15.2347V31.6413C47.7666 40.0552 40.9458 46.876 32.5319 46.876H15.7347C7.3208 46.876 0.5 40.0552 0.5 31.6413V15.2347C0.5 6.8208 7.3208 0 15.7347 0Z" fill="#6001D3"/>
<path fill-rule="evenodd" clip-rule="evenodd" d="M30.61 28.7414C30.2725 28.7414 29.9989 28.4669 29.9989 28.1294C29.9989 25.7651 31.915 23.849 34.2793 23.849C34.6168 23.849 34.8913 24.1226 34.8913 24.4601V26.4293V28.1294C34.8913 28.4669 34.6168 28.7414 34.2793 28.7414H30.61ZM13.8106 28.7414C13.5649 28.7414 13.366 28.5416 13.366 28.2959C13.366 25.8398 15.3568 23.849 17.8129 23.849H21.6397H27.5977C27.8434 23.849 28.0423 24.0479 28.0423 24.2936C28.0423 26.7497 26.0506 28.7414 23.5945 28.7414H13.8106ZM21.0835 21.8924C16.9246 21.8924 13.8106 21.8924 13.8106 21.8924C13.5649 21.8924 13.366 21.6935 13.366 21.4478C13.366 18.9917 15.3568 17 17.8129 17H34.4458C34.6915 17 34.8913 17.1989 34.8913 17.4446C34.8913 19.9007 32.8996 21.8924 30.4435 21.8924C30.4435 21.8924 25.2415 21.8924 21.0835 21.8924Z" fill="white"/>
<path d="M61.272 15.512L60.536 13.848L60.2 15.512L59.112 21H57.336L59.768 9.24H59.96L63.192 15.592L64.152 17.72L65.112 15.592L68.28 9.24H68.456L70.984 21H69.224L68.04 15.512L67.688 13.848L67.048 15.512L64.2 21H64.104L61.272 15.512ZM72.5445 9.24H77.6965V10.808H74.3205V14.056H77.0405V15.656H74.3205V19.416H78.2245V21H72.5445V9.24ZM80.0133 9.24H85.1653V10.808H81.7893V14.056H84.5093V15.656H81.7893V19.416H85.6933V21H80.0133V9.24ZM89.738 10.808H86.73V9.24H94.554V10.808H91.514V21H89.738V10.808Z" fill="black"/>
<path d="M57.72 33.096H58.368V35.984C58.3413 35.9947 58.3013 36.0053 58.248 36.016C58.1947 36.032 58.136 36.04 58.072 36.04C57.9547 36.04 57.8667 36.016 57.808 35.968C57.7493 35.92 57.72 35.8453 57.72 35.744V33.096ZM58.368 33.632H57.72V31.152C57.7467 31.1413 57.7867 31.1307 57.84 31.12C57.8987 31.104 57.96 31.096 58.024 31.096C58.1413 31.096 58.2267 31.12 58.28 31.168C58.3387 31.2107 58.368 31.2853 58.368 31.392V33.632ZM59.7018 33.888H60.3418V34.992C60.3418 35.2053 60.4031 35.3573 60.5258 35.448C60.6484 35.5333 60.8164 35.576 61.0298 35.576C61.1204 35.576 61.2218 35.56 61.3338 35.528C61.4458 35.496 61.5391 35.4587 61.6138 35.416C61.6458 35.448 61.6751 35.488 61.7018 35.536C61.7284 35.584 61.7418 35.64 61.7418 35.704C61.7418 35.8213 61.6724 35.9173 61.5338 35.992C61.3951 36.0667 61.2031 36.104 60.9578 36.104C60.5844 36.104 60.2804 36.0213 60.0458 35.856C59.8164 35.6907 59.7018 35.416 59.7018 35.032V33.888ZM60.0298 32.912V32.384H61.6538C61.6698 32.4053 61.6858 32.44 61.7018 32.488C61.7178 32.536 61.7258 32.5867 61.7258 32.64C61.7258 32.7253 61.7044 32.792 61.6618 32.84C61.6191 32.888 61.5604 32.912 61.4858 32.912H60.0298ZM60.3418 34.128H59.7018V31.232C59.7284 31.2213 59.7684 31.2107 59.8218 31.2C59.8804 31.184 59.9418 31.176 60.0058 31.176C60.1178 31.176 60.2004 31.2 60.2538 31.248C60.3124 31.2907 60.3418 31.3627 60.3418 31.464V34.128ZM65.333 35.016C65.333 35.3573 65.2077 35.624 64.957 35.816C64.7063 36.008 64.3437 36.104 63.869 36.104C63.4637 36.104 63.133 36.0427 62.877 35.92C62.621 35.792 62.493 35.6533 62.493 35.504C62.493 35.44 62.509 35.3787 62.541 35.32C62.5783 35.256 62.6317 35.2053 62.701 35.168C62.845 35.2693 63.013 35.3627 63.205 35.448C63.397 35.5333 63.6157 35.576 63.861 35.576C64.4157 35.576 64.693 35.3893 64.693 35.016C64.693 34.8613 64.645 34.736 64.549 34.64C64.4583 34.5387 64.3223 34.4667 64.141 34.424L63.477 34.248C63.1517 34.168 62.9143 34.0453 62.765 33.88C62.6157 33.7093 62.541 33.4987 62.541 33.248C62.541 32.9653 62.6557 32.72 62.885 32.512C63.1143 32.304 63.4637 32.2 63.933 32.2C64.1837 32.2 64.4023 32.2267 64.589 32.28C64.7757 32.328 64.9197 32.3947 65.021 32.48C65.1277 32.56 65.181 32.648 65.181 32.744C65.181 32.8133 65.1623 32.8747 65.125 32.928C65.093 32.9813 65.0477 33.0213 64.989 33.048C64.925 33.0053 64.8423 32.96 64.741 32.912C64.645 32.8587 64.5303 32.816 64.397 32.784C64.2637 32.7467 64.117 32.728 63.957 32.728C63.7223 32.728 63.533 32.7733 63.389 32.864C63.245 32.9547 63.173 33.0827 63.173 33.248C63.173 33.3653 63.213 33.4693 63.293 33.56C63.3783 33.6453 63.5117 33.7093 63.693 33.752L64.245 33.888C64.6077 33.9733 64.8797 34.1093 65.061 34.296C65.2423 34.4773 65.333 34.7173 65.333 35.016ZM69.2247 35.584C69.4487 35.584 69.6327 35.5627 69.7767 35.52C69.926 35.472 70.0327 35.4267 70.0967 35.384V34.224L69.1047 34.328C68.8274 34.3493 68.622 34.4107 68.4887 34.512C68.3554 34.6133 68.2887 34.76 68.2887 34.952C68.2887 35.1493 68.366 35.304 68.5207 35.416C68.6807 35.528 68.9154 35.584 69.2247 35.584ZM69.2167 32.2C69.6807 32.2 70.0487 32.304 70.3207 32.512C70.5927 32.72 70.7287 33.048 70.7287 33.496V35.392C70.7287 35.5093 70.7047 35.6 70.6567 35.664C70.614 35.7227 70.5474 35.7787 70.4567 35.832C70.3287 35.9013 70.158 35.9653 69.9447 36.024C69.7314 36.0827 69.4914 36.112 69.2247 36.112C68.7234 36.112 68.334 36.0133 68.0567 35.816C67.7847 35.6187 67.6487 35.3333 67.6487 34.96C67.6487 34.6133 67.7634 34.3493 67.9927 34.168C68.2274 33.9813 68.55 33.8693 68.9607 33.832L70.0967 33.72V33.496C70.0967 33.2293 70.0167 33.0347 69.8567 32.912C69.6967 32.7893 69.4807 32.728 69.2087 32.728C68.99 32.728 68.7794 32.76 68.5767 32.824C68.3794 32.888 68.2034 32.96 68.0487 33.04C68.006 33.0027 67.966 32.96 67.9287 32.912C67.8967 32.8587 67.8807 32.8053 67.8807 32.752C67.8807 32.6133 67.958 32.5067 68.1127 32.432C68.2567 32.3573 68.422 32.3013 68.6087 32.264C68.8007 32.2213 69.0034 32.2 69.2167 32.2ZM71.9609 33.888L72.6009 33.984V35.984C72.5742 35.9947 72.5342 36.0053 72.4809 36.016C72.4275 36.032 72.3689 36.04 72.3049 36.04C72.1929 36.04 72.1075 36.0187 72.0489 35.976C71.9902 35.928 71.9609 35.8533 71.9609 35.752V33.888ZM72.6009 34.288L71.9609 34.2V30.816C71.9875 30.8053 72.0275 30.7947 72.0809 30.784C72.1395 30.768 72.1982 30.76 72.2569 30.76C72.3742 30.76 72.4595 30.784 72.5129 30.832C72.5715 30.8747 72.6009 30.9467 72.6009 31.048V34.288ZM73.9531 33.888L74.5931 33.984V35.984C74.5664 35.9947 74.5264 36.0053 74.4731 36.016C74.4197 36.032 74.3611 36.04 74.2971 36.04C74.1851 36.04 74.0997 36.0187 74.0411 35.976C73.9824 35.928 73.9531 35.8533 73.9531 35.752V33.888ZM74.5931 34.288L73.9531 34.2V30.816C73.9797 30.8053 74.0197 30.7947 74.0731 30.784C74.1317 30.768 74.1904 30.76 74.2491 30.76C74.3664 30.76 74.4517 30.784 74.5051 30.832C74.5637 30.8747 74.5931 30.9467 74.5931 31.048V34.288ZM78.2114 35.176C78.1207 35.0053 78.0114 34.776 77.8834 34.488C77.7554 34.1947 77.622 33.8693 77.4834 33.512C77.35 33.1493 77.222 32.7813 77.0994 32.408C77.1367 32.3547 77.1847 32.312 77.2434 32.28C77.3074 32.248 77.374 32.232 77.4434 32.232C77.534 32.232 77.6087 32.256 77.6674 32.304C77.726 32.352 77.774 32.432 77.8114 32.544C77.9714 32.992 78.1394 33.4373 78.3154 33.88C78.4914 34.3227 78.686 34.7813 78.8994 35.256H78.9314C79.0434 35.032 79.1607 34.752 79.2834 34.416C79.406 34.08 79.5234 33.7253 79.6354 33.352C79.7474 32.9787 79.8407 32.6267 79.9154 32.296C79.9527 32.28 79.9927 32.2667 80.0354 32.256C80.0834 32.24 80.134 32.232 80.1874 32.232C80.278 32.232 80.3527 32.256 80.4114 32.304C80.47 32.3467 80.4994 32.4133 80.4994 32.504C80.4994 32.5893 80.4754 32.7333 80.4274 32.936C80.3794 33.1333 80.3127 33.3653 80.2274 33.632C80.1474 33.8933 80.0514 34.1733 79.9394 34.472C79.8327 34.7653 79.7154 35.056 79.5874 35.344C79.4647 35.6267 79.3394 35.8827 79.2114 36.112C78.966 36.5653 78.742 36.912 78.5394 37.152C78.3367 37.3973 78.15 37.52 77.9794 37.52C77.8567 37.52 77.7607 37.488 77.6914 37.424C77.6274 37.36 77.5874 37.2853 77.5714 37.2C77.6887 37.0987 77.8194 36.9627 77.9634 36.792C78.1127 36.6267 78.254 36.4453 78.3874 36.248C78.526 36.056 78.638 35.872 78.7234 35.696C78.6327 35.6693 78.5474 35.6213 78.4674 35.552C78.3927 35.4827 78.3074 35.3573 78.2114 35.176ZM84.7429 34.152C84.7429 34.5467 84.6683 34.8907 84.5189 35.184C84.3696 35.4773 84.1589 35.704 83.8869 35.864C83.6149 36.024 83.2949 36.104 82.9269 36.104C82.5589 36.104 82.2363 36.024 81.9589 35.864C81.6869 35.704 81.4763 35.4773 81.3269 35.184C81.1776 34.8907 81.1029 34.5467 81.1029 34.152C81.1029 33.752 81.1776 33.408 81.3269 33.12C81.4816 32.8267 81.6949 32.6 81.9669 32.44C82.2443 32.28 82.5643 32.2 82.9269 32.2C83.2896 32.2 83.6069 32.28 83.8789 32.44C84.1509 32.6 84.3616 32.8267 84.5109 33.12C84.6656 33.408 84.7429 33.752 84.7429 34.152ZM82.9269 32.728C82.5696 32.728 82.2843 32.856 82.0709 33.112C81.8629 33.3627 81.7589 33.7093 81.7589 34.152C81.7589 34.6 81.8603 34.9493 82.0629 35.2C82.2709 35.4507 82.5589 35.576 82.9269 35.576C83.2896 35.576 83.5723 35.4507 83.7749 35.2C83.9829 34.944 84.0869 34.5947 84.0869 34.152C84.0869 33.7093 83.9829 33.3627 83.7749 33.112C83.5723 32.856 83.2896 32.728 82.9269 32.728ZM85.7328 34.648V33.92H86.3728V34.616C86.3728 34.9573 86.4635 35.2027 86.6448 35.352C86.8261 35.5013 87.0768 35.576 87.3968 35.576C87.6101 35.576 87.7915 35.5547 87.9408 35.512C88.0901 35.464 88.2075 35.416 88.2928 35.368V33.92H88.9328V35.344C88.9328 35.456 88.9168 35.5467 88.8848 35.616C88.8581 35.68 88.7888 35.744 88.6768 35.808C88.5595 35.8773 88.3915 35.944 88.1728 36.008C87.9541 36.072 87.6928 36.104 87.3888 36.104C87.0368 36.104 86.7355 36.0533 86.4848 35.952C86.2395 35.8453 86.0528 35.6853 85.9248 35.472C85.7968 35.2533 85.7328 34.9787 85.7328 34.648ZM88.9328 34.336H88.2928V32.32C88.3195 32.3093 88.3595 32.2987 88.4128 32.288C88.4715 32.272 88.5301 32.264 88.5888 32.264C88.7061 32.264 88.7915 32.288 88.8448 32.336C88.9035 32.3787 88.9328 32.4533 88.9328 32.56V34.336ZM86.3728 34.336H85.7328V32.32C85.7595 32.3093 85.7995 32.2987 85.8528 32.288C85.9115 32.272 85.9728 32.264 86.0368 32.264C86.1488 32.264 86.2315 32.288 86.2848 32.336C86.3435 32.3787 86.3728 32.4533 86.3728 32.56V34.336ZM94.9328 33.56V34.376H94.2928V33.592C94.2928 33.2933 94.2075 33.0747 94.0368 32.936C93.8715 32.7973 93.6475 32.728 93.3648 32.728C93.1515 32.728 92.9621 32.7547 92.7968 32.808C92.6315 32.8613 92.4901 32.9227 92.3728 32.992V34.376H91.7328V33.024C91.7328 32.912 91.7541 32.8213 91.7968 32.752C91.8448 32.6773 91.9248 32.6053 92.0368 32.536C92.1755 32.456 92.3595 32.3813 92.5888 32.312C92.8181 32.2373 93.0768 32.2 93.3648 32.2C93.8501 32.2 94.2315 32.312 94.5088 32.536C94.7915 32.7547 94.9328 33.096 94.9328 33.56ZM91.7328 33.936H92.3728V35.984C92.3461 35.9947 92.3061 36.0053 92.2528 36.016C92.1995 36.032 92.1408 36.04 92.0768 36.04C91.9648 36.04 91.8795 36.0187 91.8208 35.976C91.7621 35.928 91.7328 35.8533 91.7328 35.752V33.936ZM94.2928 33.936H94.9328V35.984C94.9061 35.9947 94.8635 36.0053 94.8048 36.016C94.7515 36.032 94.6955 36.04 94.6368 36.04C94.5195 36.04 94.4315 36.0187 94.3728 35.976C94.3195 35.928 94.2928 35.8533 94.2928 35.752V33.936ZM96.3633 34.56L96.3313 34.056L98.7473 33.728C98.7259 33.4347 98.6246 33.1947 98.4433 33.008C98.2619 32.816 98.0113 32.72 97.6913 32.72C97.3606 32.72 97.0859 32.84 96.8673 33.08C96.6539 33.3147 96.5473 33.6533 96.5473 34.096V34.272C96.5846 34.6987 96.7233 35.024 96.9633 35.248C97.2086 35.4667 97.5419 35.576 97.9633 35.576C98.1873 35.576 98.3899 35.5387 98.5713 35.464C98.7526 35.3893 98.8966 35.3093 99.0033 35.224C99.0619 35.2613 99.1073 35.3067 99.1393 35.36C99.1766 35.408 99.1953 35.464 99.1953 35.528C99.1953 35.6293 99.1366 35.7253 99.0193 35.816C98.9073 35.9013 98.7553 35.9707 98.5633 36.024C98.3766 36.0773 98.1659 36.104 97.9313 36.104C97.5206 36.104 97.1633 36.0293 96.8593 35.88C96.5606 35.7307 96.3286 35.5093 96.1633 35.216C96.0033 34.9173 95.9233 34.5547 95.9233 34.128C95.9233 33.824 95.9659 33.5547 96.0513 33.32C96.1419 33.08 96.2646 32.8773 96.4193 32.712C96.5793 32.5467 96.7686 32.4213 96.9873 32.336C97.2059 32.2453 97.4433 32.2 97.6993 32.2C98.0246 32.2 98.3099 32.2693 98.5553 32.408C98.8059 32.5467 99.0006 32.7413 99.1393 32.992C99.2833 33.2373 99.3553 33.52 99.3553 33.84C99.3553 33.9573 99.3286 34.0427 99.2753 34.096C99.2219 34.144 99.1473 34.1733 99.0513 34.184L96.3633 34.56ZM100.512 34.56L100.48 34.056L102.896 33.728C102.874 33.4347 102.773 33.1947 102.592 33.008C102.41 32.816 102.16 32.72 101.84 32.72C101.509 32.72 101.234 32.84 101.016 33.08C100.802 33.3147 100.696 33.6533 100.696 34.096V34.272C100.733 34.6987 100.872 35.024 101.112 35.248C101.357 35.4667 101.69 35.576 102.112 35.576C102.336 35.576 102.538 35.5387 102.72 35.464C102.901 35.3893 103.045 35.3093 103.152 35.224C103.21 35.2613 103.256 35.3067 103.288 35.36C103.325 35.408 103.344 35.464 103.344 35.528C103.344 35.6293 103.285 35.7253 103.168 35.816C103.056 35.9013 102.904 35.9707 102.712 36.024C102.525 36.0773 102.314 36.104 102.08 36.104C101.669 36.104 101.312 36.0293 101.008 35.88C100.709 35.7307 100.477 35.5093 100.312 35.216C100.152 34.9173 100.072 34.5547 100.072 34.128C100.072 33.824 100.114 33.5547 100.2 33.32C100.29 33.08 100.413 32.8773 100.568 32.712C100.728 32.5467 100.917 32.4213 101.136 32.336C101.354 32.2453 101.592 32.2 101.848 32.2C102.173 32.2 102.458 32.2693 102.704 32.408C102.954 32.5467 103.149 32.7413 103.288 32.992C103.432 33.2373 103.504 33.52 103.504 33.84C103.504 33.9573 103.477 34.0427 103.424 34.096C103.37 34.144 103.296 34.1733 103.2 34.184L100.512 34.56ZM106.948 35.368V32.68L107.588 32.672V35.392C107.588 35.4933 107.564 35.576 107.516 35.64C107.473 35.6987 107.404 35.7573 107.308 35.816C107.201 35.8853 107.057 35.9493 106.876 36.008C106.695 36.072 106.476 36.104 106.22 36.104C105.836 36.104 105.492 36.0373 105.188 35.904C104.889 35.7707 104.652 35.5627 104.476 35.28C104.305 34.992 104.22 34.6213 104.22 34.168C104.22 33.704 104.3 33.328 104.46 33.04C104.625 32.752 104.847 32.5413 105.124 32.408C105.401 32.2693 105.705 32.2 106.036 32.2C106.244 32.2 106.441 32.2293 106.628 32.288C106.815 32.3467 106.961 32.4187 107.068 32.504V33.096C106.967 32.9947 106.833 32.9093 106.668 32.84C106.508 32.7653 106.319 32.728 106.1 32.728C105.881 32.728 105.679 32.776 105.492 32.872C105.305 32.9627 105.156 33.1147 105.044 33.328C104.932 33.5413 104.876 33.8267 104.876 34.184C104.876 34.6693 104.993 35.024 105.228 35.248C105.463 35.4667 105.775 35.576 106.164 35.576C106.351 35.576 106.503 35.5573 106.62 35.52C106.743 35.4773 106.852 35.4267 106.948 35.368ZM107.588 32.832L106.948 32.84V30.816C106.975 30.8053 107.015 30.7947 107.068 30.784C107.127 30.768 107.185 30.76 107.244 30.76C107.361 30.76 107.447 30.784 107.5 30.832C107.559 30.8747 107.588 30.9467 107.588 31.048V32.832Z" fill="black"/>
</svg>
