<svg width="48" height="48" viewBox="0 0 48 48" fill="none" xmlns="http://www.w3.org/2000/svg">
<path d="M15.4711 0H23.1822H32.5289C41.0734 0 48 6.98436 48 15.6V32.4C48 41.0156 41.0734 48 32.5289 48H15.4711C6.92664 48 0 41.0156 0 32.4V15.6C0 6.98436 6.92664 0 15.4711 0Z" fill="#6001D3"/>
<path fill-rule="evenodd" clip-rule="evenodd" d="M30.5737 31.2289C30.231 31.2289 29.9531 30.9286 29.9531 30.5594C29.9531 27.9729 31.899 25.8767 34.2999 25.8767C34.6427 25.8767 34.9214 26.176 34.9214 26.5452V28.6995V30.5594C34.9214 30.9286 34.6427 31.2289 34.2999 31.2289H30.5737ZM13.514 31.2289C13.2645 31.2289 13.0625 31.0104 13.0625 30.7416C13.0625 28.0546 15.0842 25.8767 17.5784 25.8767H21.4646H27.515C27.7645 25.8767 27.9665 26.0943 27.9665 26.3631C27.9665 29.05 25.9439 31.2289 23.4497 31.2289H13.514ZM20.8997 23.7351C16.6763 23.7351 13.514 23.7351 13.514 23.7351C13.2645 23.7351 13.0625 23.5175 13.0625 23.2487C13.0625 20.5617 15.0842 18.3828 17.5784 18.3828H34.4694C34.7189 18.3828 34.9218 18.6004 34.9218 18.8692C34.9218 21.5562 32.8992 23.7351 30.405 23.7351C30.405 23.7351 25.1223 23.7351 20.8997 23.7351Z" fill="white"/>
</svg>
