<svg width="14" height="17" viewBox="0 0 14 17" fill="none" xmlns="http://www.w3.org/2000/svg">
<path d="M9.16066 3.2841V2.74838C9.14218 1.56608 8.18157 0.605469 6.99928 0.605469C5.81698 0.605469 4.85636 1.56608 4.83789 2.76685V3.2841C2.95361 4.13388 1.73438 6.01816 1.73438 8.08717V9.84214H12.2642V8.17954C12.2642 6.09205 11.0449 4.1893 9.16066 3.2841Z" fill="white"/>
<path d="M12.7579 10.7656H1.23055C0.528567 11.4491 0.140625 12.3728 0.140625 13.3704V13.8137C0.140625 14.1462 0.417727 14.4049 0.731773 14.4049H4.38949C4.72201 15.8458 6.14446 16.7325 7.58538 16.4185C8.58294 16.1968 9.3773 15.4024 9.59898 14.4049H13.2567C13.5892 14.4049 13.8478 14.1278 13.8478 13.8137V13.3704C13.8663 12.3728 13.4599 11.4491 12.7579 10.7656Z" fill="white"/>
</svg>
