<svg width="44" height="30" viewBox="0 0 44 30" fill="none" xmlns="http://www.w3.org/2000/svg">
<path fill-rule="evenodd" clip-rule="evenodd" d="M36.473 0.0429688H7.21584C3.53447 0.0429688 0.53125 3.0462 0.53125 6.72755V22.4702C0.53125 26.1032 3.53447 29.1064 7.21584 29.1064H36.5215C40.1544 29.1064 43.1576 26.1032 43.1576 22.4218V6.72755C43.1576 3.0462 40.1544 0.0429688 36.473 0.0429688ZM26.0586 9.77923H33.3245C34.0511 9.77923 34.6808 10.3605 34.6808 11.1355C34.6808 11.9105 34.0995 12.4918 33.3245 12.4918H26.0586C25.332 12.4918 24.7023 11.9105 24.7023 11.1355C24.7023 10.3605 25.332 9.77923 26.0586 9.77923ZM20.4397 14.5747C20.4397 18.4014 17.388 21.5015 13.5614 21.5015C9.73467 21.5499 6.58613 18.4498 6.58613 14.6231C6.53769 10.7964 9.63779 7.6479 13.4645 7.6479C17.2912 7.59946 20.3913 10.6996 20.4397 14.5262V14.5747ZM33.8573 19.3701H26.0586C25.332 19.3701 24.7023 18.7889 24.7023 18.0139C24.7023 17.2388 25.2836 16.6576 26.0586 16.6576H33.8573C34.5839 16.6576 35.2136 17.2388 35.2136 18.0139C35.2136 18.7889 34.5839 19.3701 33.8573 19.3701Z" fill="white"/>
</svg>
